<svg xmlns="http://www.w3.org/2000/svg" width="14" height="14" viewBox="0 0 14 14" fill="none">
            <path fill-rule="evenodd" clip-rule="evenodd" d="M10.5304 0.622866L7.0012 4.14923L3.47204 0.620076C2.96592 0.0929844 2.21431 -0.119153 1.5073 0.0655419C0.800283 0.250237 0.248454 0.802877 0.0647961 1.51016C-0.118861 2.21744 0.0943789 2.96875 0.622213 3.47409L4.14997 7.00325L0.625003 10.5282C-0.141738 11.3204 -0.1316 12.5811 0.647782 13.3609C1.42716 14.1406 2.68784 14.1514 3.48041 13.385L7.0012 9.85307L10.5276 13.3808C11.034 13.9069 11.7852 14.1183 12.4917 13.9338C13.1982 13.7493 13.75 13.1975 13.9345 12.491C14.1191 11.7844 13.9076 11.0333 13.3816 10.5268L9.86079 7.00464L13.3858 3.47967C14.1525 2.68747 14.1424 1.42679 13.363 0.647029C12.5836 -0.132734 11.3229 -0.143488 10.5304 0.622866Z" fill="white" fill-opacity="0.4" />
          </svg>